HIERARCHY
ROOT Hips
{
  OFFSET 51.5278 91.6844 5.52564
  CHANNELS 6 Xposition Yposition Zposition Zrotation Xrotation Yrotation
  JOINT spine
  {
    OFFSET 0 6.84637 0.3937
    CHANNELS 3 Zrotation Xrotation Yrotation
    JOINT spine1
    {
      OFFSET 0 9.49621 0
      CHANNELS 3 Zrotation Xrotation Yrotation
      JOINT spine2
      {
        OFFSET 0 9.09909 0
        CHANNELS 3 Zrotation Xrotation Yrotation
        JOINT Neck
        {
          OFFSET 0 23.3612 1.11378
          CHANNELS 3 Zrotation Xrotation Yrotation
          JOINT Head
          {
            OFFSET 0 7.05802 0
            CHANNELS 3 Zrotation Xrotation Yrotation
            End Site
            {
              OFFSET 0 17.0844 -5.63419
            }
          }
        }
        JOINT RightShoulder
        {
          OFFSET -3.83136 9.82631 -0.533491
          CHANNELS 3 Zrotation Xrotation Yrotation
          JOINT RightArm
          {
            OFFSET 0 12.8881 0
            CHANNELS 3 Zrotation Xrotation Yrotation
            JOINT RightArmRoll
            {
              OFFSET 0 6.50617 0
              CHANNELS 3 Zrotation Xrotation Yrotation
              JOINT RightForeArm
              {
                OFFSET 0 18.9501 0
                CHANNELS 3 Zrotation Xrotation Yrotation
                JOINT RightForeArmRoll
                {
                  OFFSET 0 7.30092 0
                  CHANNELS 3 Zrotation Xrotation Yrotation
                  JOINT RightHand
                  {
                    OFFSET 0 14.6514 0
                    CHANNELS 3 Zrotation Xrotation Yrotation
                    End Site
                    {
                      OFFSET 0 0 0
                    }
                  }
                }
              }
            }
          }
        }
        JOINT LeftShoulder
        {
          OFFSET 3.83136 9.82631 -0.533491
          CHANNELS 3 Zrotation Xrotation Yrotation
          JOINT LeftArm
          {
            OFFSET 0 12.8881 0
            CHANNELS 3 Zrotation Xrotation Yrotation
            JOINT LeftArmRoll
            {
              OFFSET 0 6.50617 0
              CHANNELS 3 Zrotation Xrotation Yrotation
              JOINT LeftForeArm
              {
                OFFSET 0 18.9501 0
                CHANNELS 3 Zrotation Xrotation Yrotation
                JOINT LeftForeArmRoll
                {
                  OFFSET 0 7.30092 0
                  CHANNELS 3 Zrotation Xrotation Yrotation
                  JOINT LeftHand
                  {
                    OFFSET 0 14.6514 0
                    CHANNELS 3 Zrotation Xrotation Yrotation
                    End Site
                    {
                      OFFSET 0 0 0
                    }
                  }
                }
              }
            }
          }
        }
      }
    }
  }
  JOINT RightUpLeg
  {
    OFFSET -6.06837 -1.11278 -0.933477
    CHANNELS 3 Zrotation Xrotation Yrotation
    JOINT RightUpLegRoll
    {
      OFFSET 0 17.1796 0
      CHANNELS 3 Zrotation Xrotation Yrotation
      JOINT RightLeg
      {
        OFFSET 0 -21.2743 0
        CHANNELS 3 Zrotation Xrotation Yrotation
        JOINT RightLegRoll
        {
          OFFSET 0 21.3439 0
          CHANNELS 3 Zrotation Xrotation Yrotation
          JOINT RightFoot
          {
            OFFSET 0 17.7652 0
            CHANNELS 3 Zrotation Xrotation Yrotation
            JOINT RightToeBase
            {
              OFFSET 0 14.8508 0
              CHANNELS 3 Zrotation Xrotation Yrotation
              End Site
              {
                OFFSET 0.0062947 7.19214 -0.829005
              }
            }
          }
        }
      }
    }
  }
  JOINT LeftUpLeg
  {
    OFFSET 6.06837 -1.11278 -0.933477
    CHANNELS 3 Zrotation Xrotation Yrotation
    JOINT LeftUpLegRoll
    {
      OFFSET 0 17.1797 0
      CHANNELS 3 Zrotation Xrotation Yrotation
      JOINT LeftLeg
      {
        OFFSET 0 21.2742 0
        CHANNELS 3 Zrotation Xrotation Yrotation
        JOINT LeftLegRoll
        {
          OFFSET 0 21.5412 0
          CHANNELS 3 Zrotation Xrotation Yrotation
          JOINT LeftFoot
          {
            OFFSET 0 17.5679 0
            CHANNELS 3 Zrotation Xrotation Yrotation
            JOINT LeftToeBase
            {
              OFFSET 0 14.8508 0
              CHANNELS 3 Zrotation Xrotation Yrotation
              End Site
              {
                OFFSET -0.0282102 7.19213 -0.829005
              }
            }
          }
        }
      }
    }
  }
}
MOTION
Frames: 6
Frame Time: 0.00208333
52.2859 91.5276 5.09782 -2.07692 0.187451 1.5548 0.153446 -1.80748 0.0988885 0.308118 0.388067 0.182677 0.30607 2.03313 0.177583 -1.49937 19.9253 -1.02582 5.10222 -1.66409 -1.02153 48.4378 -1.57783 0.22881 91.2395 64.4902 1.07931 2.07763e-007 -4.88349e-008 -3.7613e-006 6.48094 59.2224 -5.17879 -2.00121e-006 -1.87897e-006 -3.00478 8.02888 -4.95151 0.697711 -51.9928 -9.95486 6.15885 -115.624 40.3719 27.056 -3.77323e-007 -5.56828e-008 1.85292e-006 154.389 81.1846 -146.862 3.8103e-006 -8.42186e-006 2.99999 -8.02889 -4.95147 -0.697716 178.39 4.99385 -1.05201 -180 7.0156e-015 178.983 178.878 6.74092 179.836 8.90174e-007 -2.0949e-006 0.00380419 -17.7737 66.6725 18.4938 8.13649 25.2327 -3.48774 -171.784 3.82822 -2.13299 4.54188e-006 -4.6773e-006 -1.05879 -1.76243 -10.886 0.188688 1.96419e-006 -4.48545e-006 -0.182498 19.4712 69.0045 -20.3907 -8.13649 25.2327 3.48774 
52.2902 91.529 5.11599 -2.07005 0.165955 1.28813 0.166536 -1.80426 0.0909454 0.333633 0.394462 0.165513 0.331804 2.03953 0.159987 -1.53432 19.8373 -0.952845 5.02126 -1.60163 -0.970483 48.3502 -1.69746 0.14694 91.9095 64.1589 0.343442 2.07763e-007 -4.88349e-008 -3.7613e-006 6.46707 59.8649 -5.22211 -2.00121e-006 -1.87897e-006 -3.00477 8.02888 -4.95151 0.697711 -51.9117 -9.891 6.11282 -115.484 41.1395 26.8228 -3.77323e-007 -5.56828e-008 1.85292e-006 153.801 81.6286 -146.523 3.8103e-006 -8.42186e-006 2.99999 -8.02889 -4.95147 -0.697716 178.395 5.01004 -1.06267 -180 7.0156e-015 178.983 178.889 6.74918 179.835 8.90174e-007 -2.0949e-006 0.00362763 -17.7735 66.6729 18.4937 8.13649 25.2327 -3.48774 -171.788 3.72651 -2.15082 4.54188e-006 -4.6773e-006 -1.06082 -1.78748 -10.8757 0.185428 1.96419e-006 -4.48545e-006 -0.181217 19.4664 68.9988 -20.3854 -8.13649 25.2327 3.48774 
52.2875 91.5279 5.12555 -2.07338 0.150383 1.01719 0.181801 -1.80305 0.081992 0.363634 0.396833 0.146119 0.362053 2.04189 0.140084 -1.60151 19.7527 -0.866144 4.96628 -1.53849 -0.914178 48.2378 -1.8092 0.0731554 92.6018 63.8148 -0.395566 2.07763e-007 -4.88349e-008 -3.7613e-006 6.44827 60.509 -5.26362 -2.00121e-006 -1.87897e-006 -3.00476 8.02888 -4.95151 0.697711 -51.8386 -9.82946 6.0684 -115.318 41.9118 26.5475 -3.77323e-007 -5.56828e-008 1.85292e-006 153.123 82.0987 -146.106 3.8103e-006 -8.42186e-006 2.99999 -8.02889 -4.95147 -0.697716 178.415 5.03035 -1.08384 -180 7.0156e-015 178.983 178.904 6.75545 179.834 8.90174e-007 -2.0949e-006 0.00346564 -17.7737 66.674 18.4938 8.13649 25.2327 -3.48774 -171.776 3.6336 -2.17999 4.54188e-006 -4.6773e-006 -1.06262 -1.81632 -10.8726 0.181894 1.96419e-006 -4.48545e-006 -0.180001 19.4646 68.9963 -20.3832 -8.13649 25.2327 3.48774 
52.3024 91.5294 5.13462 -2.0854 0.139902 0.742694 0.198843 -1.80353 0.0721823 0.397305 0.395826 0.124841 0.395996 2.04088 0.118235 -1.69346 19.6712 -0.76857 4.93151 -1.47514 -0.853459 48.1066 -1.91416 0.00612621 93.3058 63.4592 -1.13287 2.07763e-007 -4.88349e-008 -3.7613e-006 6.42382 61.154 -5.3027 -2.00121e-006 -1.87897e-006 -3.00474 8.02888 -4.95151 0.697711 -51.7708 -9.77019 6.02553 -115.128 42.6876 26.2343 -3.77323e-007 -5.56828e-008 1.85292e-006 152.337 82.5922 -145.589 3.8103e-006 -8.42186e-006 2.99999 -8.02889 -4.95147 -0.697716 178.448 5.05414 -1.11396 -180 7.01561e-015 178.984 178.92 6.75992 179.833 8.90174e-007 -2.0949e-006 0.00331673 -17.7743 66.6757 18.4941 8.13649 25.2327 -3.48774 -171.751 3.54825 -2.21877 4.54188e-006 -4.6773e-006 -1.06424 -1.84838 -10.8755 0.178127 1.96419e-006 -4.48545e-006 -0.178848 19.4653 68.9966 -20.3836 -8.13649 25.2327 3.48774 
52.2925 91.5255 5.14795 -2.1046 0.133681 0.465377 0.217263 -1.80537 0.0616706 0.433831 0.392087 0.102027 0.432813 2.03714 0.0948018 -1.80269 19.5923 -0.662967 4.91117 -1.41207 -0.789175 47.9625 -2.01346 -0.0554778 94.0114 63.0935 -1.864 2.07763e-007 -4.88349e-008 -3.7613e-006 6.39294 61.7996 -5.33862 -2.00121e-006 -1.87897e-006 -3.00473 8.02888 -4.95151 0.697711 -51.7054 -9.71314 5.98411 -114.919 43.4657 25.8877 -3.77323e-007 -5.56828e-008 1.85292e-006 151.414 83.1065 -144.943 3.8103e-006 -8.42186e-006 2.99999 -8.02889 -4.95147 -0.697716 178.491 5.08076 -1.15146 -180 7.01561e-015 178.985 178.937 6.7628 179.831 8.90174e-007 -2.0949e-006 0.00317942 -17.7752 66.6779 18.4947 8.13649 25.2327 -3.48774 -171.715 3.46926 -2.26543 4.54188e-006 -4.6773e-006 -1.06569 -1.88307 -10.8833 0.174171 1.96419e-006 -4.48545e-006 -0.177753 19.468 68.9991 -20.3861 -8.13649 25.2327 3.48774 
52.2959 91.5267 5.16248 -2.12946 0.130886 0.185964 0.236661 -1.80825 0.050611 0.472397 0.386264 0.0780221 0.471685 2.03131 0.0701432 -1.92176 19.5156 -0.552176 4.89947 -1.34975 -0.722172 47.8115 -2.10821 -0.112987 94.7089 62.7189 -2.58487 2.07763e-007 -4.88349e-008 -3.7613e-006 6.35477 62.4452 -5.37062 -2.00121e-006 -1.87897e-006 -3.00472 8.02888 -4.95151 0.697711 -51.6397 -9.65825 5.94409 -114.693 44.2445 25.5123 -3.77323e-007 -5.56828e-008 1.85292e-006 150.316 83.6387 -144.129 3.8103e-006 -8.42186e-006 2.99999 -8.02889 -4.95147 -0.697716 178.542 5.10955 -1.19477 -180 7.01561e-015 178.986 178.957 6.76431 179.829 8.90174e-007 -2.0949e-006 0.00305222 -17.7764 66.6805 18.4954 8.13649 25.2327 -3.48774 -171.672 3.39538 -2.31825 4.54188e-006 -4.6773e-006 -1.06701 -1.91982 -10.8948 0.170068 1.96419e-006 -4.48545e-006 -0.176712 19.4723 69.0032 -20.3901 -8.13649 25.2327 3.48774 
